<svg width="183" height="35" viewBox="0 0 183 35" fill="none" xmlns="http://www.w3.org/2000/svg">
<g clip-path="url(#clip0)">
<path d="M23.4536 14.8734C27.8941 11.2025 36.9628 -2.02535 22.7656 0.316427C16.5739 1.26579 7.5052 7.34174 5.69146 14.3671C4.75332 12.4683 3.6901 10.6962 2.56433 8.92402C0.813133 6.51896 -1.12569 8.41769 0.750591 10.8228C6.31253 17.6373 9.51931 26.1058 9.88183 34.9367C10.3196 30.6962 9.63165 25.5063 7.943 20.443C8.75606 20.6962 9.6942 20.8228 10.5073 20.8228C13.3842 25.6329 17.8247 29.7468 22.7656 31.6455C27.3312 33.481 33.3979 32.405 30.8962 25C29.5828 20.9493 26.5182 17.405 23.4536 14.8734ZM24.079 2.02529C31.9594 1.13921 23.5161 11.0759 20.7643 12.9114C18.2 11.2025 14.9478 9.68352 11.8207 10.1266C14.0722 7.15187 19.5759 2.59491 24.079 2.02529ZM11.7581 12.2785C13.8846 12.0886 16.1986 13.2911 18.0124 14.5569C16.2612 15.443 14.3849 15.9493 12.4461 16.1392C9.56911 16.1392 8.94369 12.5316 11.7581 12.2785ZM22.6405 27.7215C18.9505 26.6455 15.4481 23.6076 12.9464 20.5696C15.0103 20.1266 17.0742 19.3038 18.9505 18.1645C19.6385 17.8481 20.3265 17.3417 20.9519 16.8987C23.1409 18.924 25.455 21.6455 26.3306 24.7468C27.2062 28.1012 24.8295 28.3544 22.6405 27.7215Z" fill="#BCBCBC"/>
<path d="M53.6617 6.51895H42.9043C42.5291 6.51895 42.2164 6.83541 42.2164 7.21515H42.1538V24.3038C42.1538 24.6835 42.4665 25 42.8418 25C43.1545 25 43.4672 24.6835 43.5297 24.3038V16.5822H52.661C53.0362 16.5822 53.2239 16.2658 53.2239 15.9493C53.2239 15.5696 52.9737 15.3797 52.661 15.3797H43.4672V7.84806H53.6617C54.0369 7.84806 54.2246 7.53161 54.2246 7.21515C54.2246 7.02528 54.0369 6.77211 53.6617 6.51895ZM58.6026 5.63287H58.54C58.2273 5.63287 58.0397 5.88604 58.0397 6.20249V24.2405C58.0397 24.6202 58.2898 24.8734 58.6026 24.8734C58.9778 24.8734 59.1654 24.5569 59.1654 24.2405V6.32908C59.1654 5.88604 58.9778 5.63287 58.6026 5.63287ZM74.1757 12.0886C74.1757 11.7088 73.9255 11.4557 73.6128 11.4557C73.2376 11.4557 73.0499 11.7721 73.0499 12.0886V19.6202C73.0499 22.1519 71.1111 24.1772 68.7345 24.1139C66.2328 24.1139 64.7943 22.3417 64.7943 19.5569V12.0886C64.7943 11.7088 64.5441 11.4557 64.2314 11.4557C63.9812 11.4557 63.6685 11.7721 63.6685 12.0886V19.7468C63.6685 22.9114 65.5448 25.2531 68.6094 25.2531C70.4857 25.3164 72.2369 24.2405 73.1125 22.4683V24.4303C73.1125 24.8101 73.4252 25 73.6754 25C74.0506 25 74.2382 24.6835 74.2382 24.4303H74.1757V12.0886ZM84.4952 12.7215C84.7454 12.7215 85.0581 12.4683 85.0581 12.1519C85.0581 11.8987 84.7454 11.5822 84.4952 11.5822H80.5551V7.84806C80.5551 7.53161 80.2423 7.21515 79.9922 7.21515H79.9296C79.6169 7.21515 79.4293 7.53161 79.4293 7.84806V11.5822H78.0533C77.7406 11.5822 77.4905 11.7721 77.4905 12.0886C77.4905 12.405 77.7406 12.7215 78.0533 12.7215H79.4293V21.4557C79.4293 23.924 80.9929 25.1265 82.8066 25.1265C83.432 25.1265 84.0574 25 84.6203 24.8101C84.808 24.6835 84.9956 24.4936 84.9956 24.2405C84.9956 23.924 84.7454 23.7341 84.4952 23.7341C84.0574 23.8607 83.5571 23.924 83.0568 23.924C81.5557 23.924 80.5551 23.2278 80.5551 21.3291V12.7215H84.4952ZM94.1894 12.7215C94.5021 12.7215 94.7523 12.4683 94.7523 12.1519C94.7523 11.8987 94.5021 11.5822 94.1894 11.5822H90.2492V7.84806C90.2492 7.53161 89.999 7.21515 89.6863 7.21515H89.6238C89.311 7.21515 89.1234 7.53161 89.1234 7.84806V11.5822H87.7475C87.4973 11.5822 87.1846 11.7721 87.1846 12.0886C87.1846 12.405 87.4973 12.7215 87.7475 12.7215H89.1234V21.4557C89.1234 23.924 90.687 25.1265 92.5633 25.1265C93.1261 25.1265 93.7516 25 94.3145 24.8101C94.5646 24.6835 94.6897 24.4936 94.6897 24.2405C94.6897 23.924 94.5021 23.7341 94.1894 23.7341C93.7516 23.8607 93.2512 23.924 92.7509 23.924C91.2499 23.924 90.2492 23.2278 90.2492 21.3291V12.7215H94.1894ZM102.758 11.2025C99.443 11.2025 96.9413 14.2405 96.9413 18.2278V18.2911C96.9413 22.5316 99.6931 25.3164 103.008 25.3164C104.759 25.3797 106.573 24.6202 107.761 23.1645C107.949 23.0379 108.011 22.8481 108.011 22.7215C108.011 22.405 107.699 22.0886 107.448 22.0886L107.073 22.2152C106.577 22.8006 105.964 23.2726 105.273 23.5999C104.583 23.9272 103.832 24.1024 103.07 24.1139C100.631 24.1139 98.4423 22.1519 98.1921 18.8607H107.949C108.199 18.8607 108.512 18.5443 108.512 18.2278C108.512 14.2405 106.26 11.2025 102.758 11.2025ZM98.1296 17.5949C98.3172 14.6835 100.256 12.405 102.695 12.405C105.51 12.405 107.011 14.8734 107.136 17.5949H98.1296ZM118.081 11.3924C115.829 11.5822 113.953 13.1645 113.14 15.443V12.1519C113.14 11.8987 112.827 11.5822 112.577 11.5822C112.202 11.5822 112.014 11.7721 111.952 12.1519V24.5569C111.952 24.8734 112.202 25.1898 112.514 25.1898C112.827 25.1898 113.077 24.9367 113.14 24.5569V19.6202C113.14 15.2531 115.454 13.1645 118.081 12.8481H118.143C118.519 12.8481 118.706 12.4683 118.706 12.1519C118.706 11.7088 118.456 11.3924 118.081 11.3924Z" fill="black"/>
<path d="M139.158 10.6962C138.344 10.6962 137.594 11.3291 137.406 12.2152L135.28 19.4304L133.216 12.2152C133.028 11.3291 132.215 10.6329 131.277 10.6329H131.09C130.151 10.6329 129.338 11.2025 129.151 12.2152L127.087 19.3038L125.085 12.1519C124.835 11.3291 124.147 10.6329 123.272 10.6329H123.209C122.271 10.6329 121.583 11.4557 121.583 12.4684L121.708 13.4177L124.898 23.3544C125.148 24.3671 125.961 25.0633 126.962 25.1266H127.087C128.025 25.1266 128.775 24.4304 129.088 23.4177L131.152 16.3291L133.216 23.4177C133.466 24.4304 134.279 25.1266 135.217 25.1266H135.405C136.406 25.1266 137.219 24.4304 137.469 23.3544L140.659 13.2912L140.846 12.5317V12.4684C140.846 11.4557 140.096 10.6962 139.158 10.6962ZM148.351 10.6962C146.913 10.6329 145.537 10.9494 144.161 11.3924C143.598 11.6456 143.285 12.2152 143.285 12.9114C143.285 13.8608 143.973 14.557 144.849 14.4937C144.974 14.4937 145.162 14.4937 145.349 14.3671C146.162 14.1139 147.038 13.9874 147.914 13.9874C149.79 13.9874 150.728 14.8734 150.728 16.5823V16.7722C149.727 16.3924 148.601 16.2658 147.538 16.2658C144.474 16.2658 142.347 17.7215 142.347 20.8228C142.347 23.5443 144.411 25.1266 146.788 25.1266C148.289 25.1899 149.727 24.4937 150.728 23.3544C150.79 24.3671 151.541 25.0633 152.479 25.0633C153.48 25.0633 154.293 24.1772 154.293 23.1013V16.7722C154.355 15.1899 153.855 13.5443 152.854 12.3418C151.791 11.3291 150.353 10.6962 148.351 10.6962ZM150.79 19.8734C150.79 21.3924 149.54 22.3418 147.851 22.2785C146.663 22.2785 145.85 21.6456 145.85 20.5696V20.5063C145.85 19.3038 146.85 18.5443 148.414 18.5443C149.164 18.5443 150.04 18.7975 150.79 19.1139V19.8734ZM166.989 10.6329C166.239 10.6329 165.488 11.1393 165.3 12.0253L162.423 20.1899L159.672 12.0886C159.421 11.2025 158.733 10.6329 157.858 10.6329C156.92 10.6329 156.169 11.3924 156.044 12.4684C156.044 12.7848 156.169 13.1013 156.294 13.4177L160.297 23.3544C160.547 24.3671 161.36 25.0633 162.361 25.1266H162.611C163.487 25.0633 164.362 24.4304 164.738 23.4177L168.615 13.481L168.803 12.5317V12.4684C168.803 11.4557 168.052 10.6329 166.989 10.6329ZM176.683 10.5696C172.868 10.5696 170.241 13.8608 170.241 17.8481V18.481C170.366 22.3418 173.493 25.3165 177.058 25.1266C178.685 25.1266 180.248 24.557 181.562 23.4177C181.937 23.1013 182.062 22.7215 182.062 22.2785V22.2152C182.062 21.3291 181.436 20.6329 180.623 20.6329C180.311 20.6329 179.998 20.6962 179.748 20.9494C179.019 21.5846 178.083 21.923 177.121 21.8988C175.557 21.962 174.181 20.8228 173.994 19.1139H181.311C182.249 19.0506 183 18.1646 182.937 17.1519V16.8355C182.937 13.4177 180.123 10.4431 176.683 10.5696ZM173.869 16.7722C174.181 14.9367 175.182 13.7975 176.683 13.7975C178.184 13.7975 179.185 15 179.373 16.7722H173.869Z" fill="black" stroke="black"/>
</g>
<defs>
<clipPath id="clip0">
<rect width="183" height="35" fill="white"/>
</clipPath>
</defs>
</svg>
